<svg xmlns="http://www.w3.org/2000/svg" xml:lang="en" height="741.1pt" width="473.79999999999995pt" viewBox="-196.40000000000003 -2.0 473.79999999999995 741.1"><polygon points="76.95,40.5 77.27128576765485,40.497451085395966 77.59249065333586,40.489804983259496 77.91353379543078,40.4770636184559 78.23433437304543,40.45923019855565 78.55481162634996,40.43630921302683 78.8748848769097,40.40830643210496 79.19447354799547,40.37522890534039 79.51349718486841,40.3370849598236 79.83187547503401,40.29388419808888 80.14952826846033,40.245637495696975 80.46637559775533,40.1923569984972 80.7823376982983,40.134056119569806 81.0973350283201,40.07074953584926 81.41128828892745,40.002453184429484 81.72411844406591,39.929184258551714 82.03574674041685,39.850961203276206 82.3460947272232,39.76780371083882 82.65508427603895,39.67973271569356 82.96263760039756,39.58677038924249 83.26867727539437,39.48894013425414 83.57312625717779,39.386266578972034 83.87590790234479,39.27877557091464 84.1769459872354,39.16649417036841 84.47616472712164,39.04945064357546 84.77348879528584,38.92767445561777 85.06884334198392,38.80119626299941 85.36215401328819,38.670047905928996 85.65334696980572,38.53426240030407 85.94234890526693,38.39387392939955 86.22908706498006,38.2489178352622 86.51348926414683,38.09943060981353 86.79548390603449,37.94544988566314 87.075,37.78701442663487 87.35196717936148,37.624164118008274 87.62631571911268,37.456939956477655 87.89797655347586,37.28538403983141 88.16688129328872,37.10953955635411 88.43296224322111,36.9294507739541 88.69615241881677,36.74516302901929 88.95638556335646,36.55672271500393 89.21359616453775,36.364177270749344 89.46771947096725,36.16757516854145 89.71869150846157,35.96696590190807 89.96644909615242,35.7623999731593 90.21092986239202,35.55392888067372 90.4520722604549,35.34160510593402 90.68981558403193,35.12548210031504 90.92409998251277,34.90561427162766 91.154866476053,34.68205697042196 91.38205697042197,34.454866476053 91.60561427162766,34.22409998251276 91.82548210031504,33.989815584031916 92.04160510593404,33.7520722604549 92.25392888067373,33.51092986239202 92.46239997315931,33.266449096152414 92.66696590190807,33.01869150846157 92.86757516854145,32.76771947096725 93.06417727074935,32.513596164537745 93.25672271500395,32.25638556335647 93.4451630290193,31.99615241881676 93.62945077395412,31.732962243221102 93.80953955635412,31.466881293288726 93.98538403983142,31.197976553475847 94.15693995647766,30.926315719112665 94.32416411800828,30.65196717936147 94.48701442663489,30.374999999999993 94.64544988566314,30.095483906034485 94.79943060981354,29.81348926414682 94.9489178352622,29.529087064980057 95.09387392939955,29.24234890526692 95.23426240030408,28.953346969805718 95.370047905929,28.662154013288195 95.5011962629994,28.368843341983922 95.62767445561776,28.073488795285847 95.74945064357546,27.77616472712163 95.8664941703684,27.4769459872354 95.97877557091464,27.17590790234479 96.08626657897203,26.87312625717778 96.18894013425414,26.56867727539436 96.2867703892425,26.26263760039756 96.37973271569358,25.955084276038942 96.46780371083882,25.6460947272232 96.55096120327622,25.335746740416848 96.62918425855172,25.024118444065895 96.70245318442949,24.71128828892744 96.77074953584926,24.397335028320104 96.83405611956981,24.0823376982983 96.89235699849722,23.76637559775533 96.94563749569699,23.449528268460327 96.99388419808889,23.13187547503402 97.0370849598236,22.813497184868417 97.0752289053404,22.49447354799547 97.10830643210497,22.174884876909694 97.13630921302683,21.85481162634996 97.15923019855565,21.534334373045425 97.1770636184559,21.213533795430774 97.18980498325949,20.892490653335862 97.19745108539595,20.571285767654853 97.19999999999999,20.249999999999996 97.19999999999999,20.250000000000004 97.19745108539595,19.928714232345143 97.18980498325949,19.60750934666413 97.1770636184559,19.286466204569223 97.15923019855565,18.96566562695457 97.13630921302683,18.645188373650036 97.10830643210497,18.325115123090303 97.0752289053404,18.00552645200453 97.0370849598236,17.686502815131583 96.99388419808888,17.368124524965978 96.94563749569697,17.050471731539666 96.89235699849722,16.733624402244665 96.83405611956981,16.417662301701696 96.77074953584926,16.102664971679893 96.70245318442949,15.788711711072555 96.62918425855172,15.475881555934102 96.55096120327622,15.164253259583148 96.46780371083882,14.853905272776796 96.37973271569358,14.54491572396105 96.2867703892425,14.237362399602437 96.18894013425414,13.93132272460564 96.08626657897203,13.626873742822214 95.97877557091464,13.324092097655212 95.8664941703684,13.023054012764598 95.74945064357546,12.72383527287837 95.62767445561776,12.426511204714147 95.5011962629994,12.131156658016074 95.370047905929,11.837845986711802 95.23426240030408,11.546653030194278 95.09387392939955,11.257651094733077 94.9489178352622,10.970912935019943 94.79943060981354,10.686510735853178 94.64544988566314,10.404516093965512 94.48701442663487,10.125000000000004 94.32416411800828,9.848032820638526 94.15693995647766,9.573684280887328 93.98538403983142,9.302023446524153 93.80953955635411,9.03311870671127 93.62945077395412,8.767037756778896 93.4451630290193,8.50384758118324 93.25672271500395,8.243614436643535 93.06417727074935,7.986403835462252 92.86757516854145,7.732280529032749 92.66696590190807,7.481308491538423 92.46239997315931,7.233550903847584 92.25392888067373,6.989070137607979 92.04160510593404,6.747927739545099 91.82548210031504,6.510184415968076 91.60561427162766,6.275900017487235 91.38205697042197,6.0451335239469985 91.154866476053,5.817943029578029 90.92409998251277,5.594385728372332 90.68981558403193,5.374517899684953 90.4520722604549,5.158394894065972 90.21092986239202,4.946071119326274 89.96644909615242,4.737600026840699 89.71869150846157,4.533034098091928 89.46771947096725,4.332424831458556 89.21359616453775,4.135822729250653 88.95638556335646,3.9432772849960687 88.69615241881675,3.754836970980704 88.43296224322111,3.570549226045892 88.16688129328872,3.3904604436458814 87.89797655347586,3.214615960168585 87.62631571911267,3.0430600435223383 87.35196717936148,2.8758358819917187 87.075,2.712985573365119 86.79548390603449,2.55455011433686 86.51348926414683,2.4005693901864675 86.22908706498006,2.251082164737804 85.94234890526693,2.106126070600451 85.65334696980572,1.9657375996959239 85.36215401328819,1.8299520940710068 85.06884334198392,1.698803737000593 84.77348879528584,1.5723255443822304 84.47616472712164,1.4505493564245322 84.1769459872354,1.3335058296315925 83.87590790234479,1.2212244290853598 83.57312625717779,1.1137334210279677 83.26867727539437,1.0110598657458572 82.96263760039756,0.9132296107575081 82.65508427603895,0.8202672843064331 82.3460947272232,0.7321962891611767 82.03574674041685,0.6490387967237891 81.72411844406591,0.5708157414482865 81.41128828892745,0.49754681557051045 81.0973350283201,0.42925046415073537 80.7823376982983,0.3659438804301932 80.46637559775533,0.3076430015027925 80.14952826846033,0.25436250430301743 79.83187547503401,0.20611580191111809 79.51349718486841,0.16291504017639794 79.19447354799547,0.1247710946596094 78.8748848769097,0.09169356789503977 78.55481162634996,0.0636907869731694 78.23433437304543,0.04076980144434419 77.91353379543078,0.0229363815440919 77.59249065333586,0.010195016740507023 77.27128576765485,0.0025489146040348133 76.95,3.597122599785507e-15 -76.95,3.597122599785507e-15 -77.27128576765485,0.0025489146040348133 -77.59249065333586,0.010195016740507023 -77.91353379543078,0.0229363815440919 -78.23433437304543,0.04076980144434419 -78.55481162634996,0.0636907869731694 -78.8748848769097,0.09169356789503977 -79.19447354799546,0.1247710946596094 -79.51349718486841,0.16291504017639794 -79.83187547503401,0.20611580191111448 -80.14952826846033,0.25436250430302104 -80.46637559775533,0.3076430015027925 -80.7823376982983,0.3659438804301932 -81.0973350283201,0.42925046415073537 -81.41128828892745,0.49754681557051045 -81.7241184440659,0.5708157414482865 -82.03574674041685,0.6490387967237891 -82.3460947272232,0.7321962891611767 -82.65508427603895,0.8202672843064331 -82.96263760039756,0.9132296107575081 -83.26867727539437,1.0110598657458572 -83.57312625717779,1.1137334210279677 -83.87590790234479,1.221224429085356 -84.1769459872354,1.3335058296315925 -84.47616472712163,1.4505493564245322 -84.77348879528584,1.5723255443822304 -85.06884334198392,1.698803737000593 -85.36215401328819,1.8299520940710068 -85.65334696980572,1.9657375996959239 -85.94234890526693,2.106126070600451 -86.22908706498006,2.251082164737804 -86.51348926414681,2.4005693901864675 -86.79548390603449,2.5545501143368563 -87.075,2.7129855733651227 -87.35196717936147,2.875835881991715 -87.62631571911267,3.0430600435223383 -87.89797655347586,3.214615960168585 -88.16688129328872,3.3904604436458814 -88.43296224322111,3.5705492260458884 -88.69615241881675,3.754836970980704 -88.95638556335646,3.943277284996065 -89.21359616453775,4.135822729250649 -89.46771947096725,4.332424831458559 -89.71869150846157,4.533034098091928 -89.96644909615242,4.737600026840699 -90.21092986239202,4.946071119326274 -90.4520722604549,5.158394894065968 -90.68981558403192,5.374517899684951 -90.92409998251277,5.594385728372329 -91.154866476053,5.817943029578034 -91.38205697042197,6.045133523947 -91.60561427162766,6.275900017487237 -91.82548210031504,6.510184415968076 -92.04160510593402,6.747927739545095 -92.25392888067373,6.989070137607977 -92.46239997315931,7.233550903847578 -92.66696590190807,7.4813084915384245 -92.86757516854145,7.732280529032742 -93.06417727074935,7.986403835462254 -93.25672271500395,8.243614436643535 -93.4451630290193,8.503847581183239 -93.6294507739541,8.767037756778892 -93.80953955635411,9.033118706711269 -93.98538403983142,9.30202344652415 -94.15693995647766,9.573684280887322 -94.32416411800828,9.848032820638526 -94.48701442663489,10.125000000000005 -94.64544988566314,10.404516093965512 -94.79943060981354,10.686510735853178 -94.9489178352622,10.97091293501994 -95.09387392939955,11.257651094733083 -95.23426240030408,11.546653030194275 -95.370047905929,11.837845986711805 -95.5011962629994,12.131156658016069 -95.62767445561776,12.426511204714147 -95.74945064357546,12.72383527287837 -95.8664941703684,13.023054012764597 -95.97877557091464,13.324092097655209 -96.08626657897203,13.62687374282221 -96.18894013425414,13.931322724605643 -96.2867703892425,14.23736239960243 -96.37973271569358,14.54491572396105 -96.46780371083882,14.853905272776794 -96.55096120327622,15.164253259583147 -96.62918425855172,15.4758815559341 -96.70245318442949,15.788711711072551 -96.77074953584926,16.102664971679896 -96.83405611956981,16.417662301701693 -96.89235699849722,16.733624402244665 -96.94563749569697,17.050471731539666 -96.99388419808888,17.368124524965978 -97.0370849598236,17.68650281513158 -97.0752289053404,18.005526452004528 -97.10830643210497,18.32511512309031 -97.13630921302683,18.645188373650033 -97.15923019855565,18.96566562695457 -97.1770636184559,19.286466204569223 -97.18980498325949,19.60750934666413 -97.19745108539595,19.92871423234514 -97.19999999999999,20.25 -97.19999999999999,20.25 -97.19745108539595,20.571285767654857 -97.18980498325949,20.892490653335866 -97.1770636184559,21.213533795430777 -97.15923019855565,21.534334373045436 -97.13630921302683,21.85481162634997 -97.10830643210497,22.1748848769097 -97.0752289053404,22.494473547995476 -97.0370849598236,22.813497184868424 -96.99388419808889,23.131875475034022 -96.94563749569699,23.449528268460334 -96.89235699849722,23.766375597755335 -96.83405611956981,24.08233769829831 -96.77074953584926,24.397335028320114 -96.70245318442949,24.711288288927452 -96.62918425855172,25.024118444065902 -96.55096120327622,25.33574674041685 -96.46780371083882,25.646094727223208 -96.37973271569358,25.955084276038946 -96.2867703892425,26.26263760039757 -96.18894013425414,26.568677275394368 -96.08626657897203,26.87312625717779 -95.97877557091464,27.175907902344793 -95.8664941703684,27.476945987235403 -95.74945064357546,27.776164727121632 -95.62767445561776,28.07348879528585 -95.5011962629994,28.368843341983933 -95.370047905929,28.662154013288202 -95.23426240030408,28.95334696980573 -95.09387392939955,29.242348905266926 -94.9489178352622,29.529087064980065 -94.79943060981354,29.813489264146824 -94.64544988566314,30.09548390603449 -94.48701442663487,30.375000000000007 -94.32416411800828,30.651967179361474 -94.15693995647766,30.926315719112676 -93.98538403983142,31.197976553475854 -93.80953955635412,31.466881293288733 -93.62945077395412,31.73296224322111 -93.4451630290193,31.996152418816763 -93.25672271500395,32.25638556335647 -93.06417727074935,32.51359616453775 -92.86757516854145,32.76771947096726 -92.66696590190807,33.01869150846158 -92.46239997315931,33.26644909615242 -92.25392888067373,33.51092986239202 -92.04160510593404,33.75207226045491 -91.82548210031504,33.98981558403192 -91.60561427162766,34.22409998251277 -91.38205697042196,34.45486647605301 -91.154866476053,34.68205697042198 -90.92409998251277,34.90561427162767 -90.68981558403193,35.12548210031505 -90.4520722604549,35.34160510593403 -90.21092986239202,35.55392888067372 -89.96644909615243,35.762399973159305 -89.71869150846157,35.966965901908075 -89.46771947096725,36.16757516854145 -89.21359616453775,36.36417727074935 -88.95638556335648,36.55672271500393 -88.69615241881677,36.745163029019295 -88.43296224322111,36.92945077395411 -88.16688129328874,37.10953955635412 -87.89797655347586,37.28538403983141 -87.62631571911268,37.45693995647766 -87.35196717936147,37.62416411800829 -87.075,37.78701442663488 -86.79548390603449,37.945449885663145 -86.51348926414683,38.09943060981353 -86.22908706498006,38.248917835262205 -85.94234890526693,38.393873929399554 -85.65334696980572,38.53426240030408 -85.36215401328819,38.670047905928996 -85.06884334198394,38.80119626299941 -84.77348879528584,38.92767445561777 -84.47616472712164,39.04945064357547 -84.1769459872354,39.166494170368416 -83.87590790234479,39.278775570914654 -83.57312625717779,39.38626657897204 -83.26867727539437,39.48894013425415 -82.96263760039757,39.5867703892425 -82.65508427603895,39.679732715693575 -82.34609472722322,39.76780371083883 -82.03574674041685,39.85096120327622 -81.7241184440659,39.92918425855172 -81.41128828892745,40.0024531844295 -81.0973350283201,40.070749535849274 -80.7823376982983,40.13405611956981 -80.46637559775533,40.19235699849722 -80.14952826846034,40.24563749569699 -79.83187547503402,40.29388419808889 -79.51349718486841,40.337084959823606 -79.19447354799547,40.37522890534039 -78.87488487690969,40.408306432104965 -78.55481162634997,40.43630921302683 -78.23433437304543,40.45923019855566 -77.9135337954308,40.477063618455915 -77.59249065333586,40.489804983259496 -77.27128576765485,40.49745108539597 -76.95,40.5 76.95,40.5 " style="stroke:black;fill:none;stroke-width:2;stroke-linecap:round;stroke-linejoin:round;" /><polygon points="-105.30000000000001,121.5 -97.20000000000002,89.1 97.19999999999997,89.1 80.99999999999999,153.9 -113.4,153.9 " style="stroke:black;fill:none;stroke-width:2;stroke-linecap:round;stroke-linejoin:round;" /><polygon points="-137.70000000000002,348.3 -129.60000000000002,315.9 97.19999999999996,315.9 80.99999999999997,380.7 -145.8,380.7 " style="stroke:black;fill:none;stroke-width:2;stroke-linecap:round;stroke-linejoin:round;" /><polygon points="-129.60000000000002,526.5 -32.40000000000003,429.29999999999995 64.79999999999997,526.5 -32.40000000000003,623.6999999999999 " style="stroke:black;fill:none;stroke-width:2;stroke-linecap:round;stroke-linejoin:round;" /><polygon points="255.14999999999998,546.75 255.47128576765485,546.7474510853959 255.79249065333588,546.7398049832594 256.1135337954308,546.727063618456 256.43433437304543,546.7092301985557 256.75481162635,546.6863092130268 257.0748848769097,546.658306432105 257.39447354799546,546.6252289053404 257.7134971848684,546.5870849598235 258.031875475034,546.5438841980889 258.34952826846035,546.495637495697 258.66637559775535,546.4423569984972 258.9823376982983,546.3840561195698 259.2973350283201,546.3207495358492 259.6112882889275,546.2524531844294 259.92411844406587,546.1791842585517 260.23574674041686,546.1009612032763 260.5460947272232,546.0178037108388 260.85508427603895,545.9297327156936 261.16263760039755,545.8367703892425 261.4686772753943,545.7389401342541 261.77312625717775,545.636266578972 262.0759079023448,545.5287755709147 262.3769459872354,545.4164941703684 262.6761647271216,545.2994506435755 262.97348879528585,545.1776744556178 263.2688433419839,545.0511962629994 263.5621540132882,544.920047905929 263.8533469698057,544.784262400304 264.14234890526694,544.6438739293995 264.4290870649801,544.4989178352622 264.71348926414686,544.3494306098136 264.99548390603445,544.1954498856632 265.275,544.0370144266349 265.5519671793615,543.8741641180083 265.8263157191127,543.7069399564776 266.0979765534758,543.5353840398315 266.3668812932887,543.3595395563541 266.6329622432211,543.1794507739542 266.89615241881677,542.9951630290193 267.1563855633565,542.806722715004 267.41359616453775,542.6141772707493 267.66771947096726,542.4175751685415 267.91869150846156,542.2169659019081 268.1664490961524,542.0123999731593 268.410929862392,541.8039288806737 268.6520722604549,541.591605105934 268.8898155840319,541.375482100315 269.12409998251275,541.1556142716277 269.35486647605296,540.932056970422 269.58205697042195,540.704866476053 269.80561427162763,540.4740999825127 270.025482100315,540.2398155840319 270.241605105934,540.0020722604548 270.4539288806737,539.760929862392 270.66239997315927,539.5164490961524 270.86696590190803,539.2686915084615 271.06757516854145,539.0177194709672 271.26417727074937,538.7635961645377 271.4567227150039,538.5063855633564 271.6451630290193,538.2461524188167 271.82945077395414,537.9829622432211 272.0095395563541,537.7168812932887 272.1853840398314,537.4479765534758 272.3569399564777,537.1763157191127 272.52416411800823,536.9019671793615 272.6870144266349,536.625 272.84544988566313,536.3454839060345 272.99943060981354,536.0634892641467 273.14891783526224,535.77908706498 273.2938739293995,535.4923489052669 273.4342624003041,535.2033469698057 273.570047905929,534.9121540132882 273.70119626299936,534.618843341984 273.8276744556178,534.3234887952858 273.94945064357546,534.0261647271216 274.0664941703684,533.7269459872354 274.17877557091464,533.4259079023448 274.28626657897206,533.1231262571778 274.3889401342541,532.8186772753944 274.4867703892425,532.5126376003975 274.5797327156935,532.2050842760389 274.6678037108388,531.8960947272232 274.7509612032762,531.5857467404168 274.8291842585517,531.2741184440658 274.9024531844295,530.9612882889273 274.9707495358492,530.6473350283201 275.03405611956975,530.3323376982983 275.0923569984972,530.0163755977553 275.145637495697,529.6995282684603 275.1938841980889,529.381875475034 275.23708495982356,529.0634971848684 275.2752289053404,528.7444735479955 275.308306432105,528.4248848769096 275.3363092130268,528.1048116263499 275.3592301985557,527.7843343730455 275.3770636184559,527.4635337954307 275.38980498325947,527.1424906533359 275.3974510853959,526.8212857676548 275.4,526.5 275.4,526.5 275.3974510853959,526.1787142323451 275.38980498325947,525.8575093466641 275.3770636184559,525.5364662045693 275.3592301985557,525.2156656269545 275.3363092130268,524.89518837365 275.308306432105,524.5751151230903 275.2752289053404,524.2555264520045 275.23708495982356,523.9365028151316 275.1938841980889,523.618124524966 275.145637495697,523.3004717315397 275.0923569984972,522.9836244022447 275.03405611956975,522.6676623017016 274.9707495358492,522.3526649716798 274.9024531844295,522.0387117110726 274.8291842585517,521.725881555934 274.7509612032762,521.4142532595831 274.6678037108388,521.1039052727768 274.5797327156935,520.794915723961 274.4867703892425,520.4873623996025 274.3889401342541,520.1813227246056 274.28626657897206,519.8768737428222 274.17877557091464,519.5740920976551 274.0664941703684,519.2730540127645 273.94945064357546,518.9738352728783 273.8276744556178,518.6765112047141 273.70119626299936,518.381156658016 273.570047905929,518.0878459867117 273.4342624003041,517.7966530301942 273.2938739293995,517.5076510947331 273.14891783526224,517.2209129350199 272.99943060981354,516.9365107358532 272.84544988566313,516.6545160939654 272.6870144266349,516.375 272.52416411800823,516.0980328206385 272.3569399564777,515.8236842808873 272.1853840398314,515.5520234465241 272.0095395563541,515.2831187067112 271.82945077395414,515.0170377567789 271.6451630290193,514.7538475811832 271.4567227150039,514.4936144366435 271.26417727074937,514.2364038354623 271.06757516854145,513.9822805290328 270.86696590190803,513.7313084915385 270.66239997315927,513.4835509038476 270.4539288806737,513.239070137608 270.241605105934,512.997927739545 270.025482100315,512.7601844159681 269.80561427162763,512.5259000174872 269.58205697042195,512.295133523947 269.35486647605296,512.067943029578 269.12409998251275,511.8443857283723 268.8898155840319,511.6245178996849 268.6520722604549,511.4083948940659 268.410929862392,511.1960711193263 268.1664490961524,510.9876000268407 267.91869150846156,510.78303409809195 267.66771947096726,510.5824248314585 267.41359616453775,510.3858227292506 267.1563855633565,510.19327728499604 266.89615241881677,510.00483697098065 266.6329622432211,509.82054922604584 266.3668812932887,509.64046044364585 266.0979765534758,509.4646159601686 265.8263157191127,509.2930600435223 265.5519671793615,509.1258358819917 265.275,508.9629855733651 264.99548390603445,508.8045501143368 264.71348926414686,508.65056939018643 264.4290870649801,508.50108216473774 264.14234890526694,508.35612607060045 263.8533469698057,508.2157375996959 263.5621540132882,508.07995209407096 263.2688433419839,507.9488037370006 262.97348879528585,507.8223255443822 262.6761647271216,507.70054935642446 262.3769459872354,507.5835058296315 262.0759079023448,507.47122442908534 261.77312625717775,507.3637334210279 261.4686772753943,507.26105986574584 261.16263760039755,507.16322961075747 260.85508427603895,507.07026728430645 260.5460947272232,506.98219628916115 260.23574674041686,506.8990387967238 259.92411844406587,506.82081574144826 259.6112882889275,506.74754681557044 259.2973350283201,506.67925046415075 258.9823376982983,506.61594388043017 258.66637559775535,506.55764300150275 258.3495282684603,506.504362504303 258.031875475034,506.4561158019111 257.7134971848684,506.41291504017636 257.39447354799546,506.3747710946596 257.0748848769097,506.341693567895 256.75481162635,506.31369078697315 256.43433437304543,506.2907698014443 256.1135337954308,506.27293638154407 255.79249065333588,506.2601950167405 255.47128576765485,506.252548914604 255.14999999999998,506.25 133.64999999999998,506.25 133.3287142323451,506.252548914604 133.00750934666408,506.2601950167405 132.68646620456917,506.27293638154407 132.36566562695452,506.2907698014443 132.04518837365,506.31369078697315 131.72511512309026,506.341693567895 131.4055264520045,506.3747710946596 131.08650281513152,506.41291504017636 130.76812452496594,506.4561158019111 130.4504717315396,506.504362504303 130.1336244022446,506.55764300150275 129.81766230170166,506.61594388043017 129.50266497167985,506.67925046415075 129.1887117110725,506.74754681557044 128.87588155593406,506.82081574144826 128.56425325958313,506.8990387967238 128.25390527277676,506.98219628916115 127.94491572396102,507.07026728430645 127.6373623996024,507.16322961075747 127.3313227246056,507.26105986574584 127.02687374282218,507.3637334210279 126.72409209765517,507.47122442908534 126.42305401276455,507.5835058296315 126.12383527287834,507.70054935642446 125.82651120471411,507.8223255443822 125.53115665801604,507.9488037370006 125.23784598671178,508.07995209407096 124.94665303019424,508.2157375996959 124.65765109473304,508.35612607060045 124.3709129350199,508.50108216473774 124.08651073585315,508.65056939018643 123.80451609396547,508.8045501143368 123.52499999999996,508.9629855733651 123.2480328206385,509.1258358819917 122.9736842808873,509.2930600435223 122.70202344652411,509.4646159601686 122.43311870671124,509.64046044364585 122.16703775677885,509.82054922604584 121.90384758118321,510.00483697098065 121.6436144366435,510.19327728499604 121.38640383546222,510.3858227292506 121.13228052903271,510.5824248314586 120.88130849153839,510.78303409809195 120.63355090384755,510.9876000268407 120.38907013760794,511.1960711193263 120.14792773954505,511.4083948940659 119.91018441596805,511.6245178996849 119.6759000174872,511.8443857283723 119.44513352394696,512.067943029578 119.21794302957798,512.295133523947 118.9943857283723,512.5259000174872 118.77451789968491,512.7601844159681 118.55839489406594,512.997927739545 118.34607111932624,513.239070137608 118.13760002684066,513.4835509038476 117.9330340980919,513.7313084915385 117.73242483145852,513.9822805290327 117.53582272925061,514.2364038354623 117.34327728499602,514.4936144366435 117.15483697098065,514.7538475811832 116.97054922604586,515.0170377567788 116.79046044364586,515.2831187067112 116.61461596016855,515.5520234465241 116.44306004352231,515.8236842808873 116.27583588199167,516.0980328206385 116.11298557336508,516.375 115.95455011433683,516.6545160939654 115.80056939018642,516.9365107358532 115.65108216473777,517.2209129350199 115.50612607060042,517.5076510947331 115.36573759969588,517.7966530301942 115.22995209407097,518.0878459867117 115.09880373700055,518.381156658016 114.97232554438219,518.6765112047141 114.85054935642451,518.9738352728783 114.73350582963155,519.2730540127645 114.62122442908533,519.5740920976551 114.51373342102792,519.8768737428222 114.41105986574581,520.1813227246056 114.31322961075746,520.4873623996025 114.22026728430639,520.794915723961 114.13219628916114,521.1039052727768 114.04903879672375,521.4142532595831 113.97081574144825,521.725881555934 113.89754681557048,522.0387117110726 113.82925046415069,522.3526649716798 113.76594388043016,522.6676623017016 113.70764300150275,522.9836244022447 113.654362504303,523.3004717315397 113.60611580191109,523.618124524966 113.56291504017636,523.9365028151316 113.52477109465957,524.2555264520045 113.491693567895,524.5751151230903 113.46369078697313,524.89518837365 113.4407698014443,525.2156656269545 113.42293638154406,525.5364662045693 113.41019501674047,525.8575093466641 113.402548914604,526.1787142323451 113.39999999999996,526.5 113.39999999999996,526.5 113.402548914604,526.8212857676548 113.41019501674047,527.1424906533359 113.42293638154406,527.4635337954307 113.4407698014443,527.7843343730455 113.46369078697313,528.1048116263499 113.491693567895,528.4248848769096 113.52477109465957,528.7444735479955 113.56291504017636,529.0634971848684 113.60611580191107,529.381875475034 113.65436250430298,529.6995282684603 113.70764300150275,530.0163755977553 113.76594388043016,530.3323376982983 113.82925046415069,530.6473350283201 113.89754681557048,530.9612882889273 113.97081574144825,531.2741184440658 114.04903879672375,531.5857467404168 114.13219628916114,531.8960947272232 114.22026728430639,532.2050842760389 114.31322961075746,532.5126376003975 114.41105986574581,532.8186772753944 114.51373342102792,533.1231262571778 114.62122442908533,533.4259079023448 114.73350582963155,533.7269459872354 114.85054935642451,534.0261647271216 114.97232554438219,534.3234887952858 115.09880373700055,534.618843341984 115.22995209407097,534.9121540132882 115.36573759969588,535.2033469698057 115.50612607060042,535.4923489052669 115.65108216473777,535.77908706498 115.80056939018642,536.0634892641467 115.95455011433683,536.3454839060345 116.1129855733651,536.625 116.27583588199167,536.9019671793615 116.44306004352231,537.1763157191127 116.61461596016855,537.4479765534758 116.79046044364584,537.7168812932887 116.97054922604585,537.9829622432211 117.15483697098065,538.2461524188167 117.34327728499602,538.5063855633564 117.53582272925061,538.7635961645377 117.73242483145852,539.0177194709672 117.9330340980919,539.2686915084615 118.13760002684066,539.5164490961524 118.34607111932624,539.760929862392 118.55839489406593,540.0020722604548 118.77451789968491,540.2398155840319 118.9943857283723,540.4740999825127 119.217943029578,540.704866476053 119.44513352394696,540.932056970422 119.6759000174872,541.1556142716277 119.91018441596803,541.375482100315 120.14792773954505,541.591605105934 120.38907013760794,541.8039288806737 120.63355090384754,542.0123999731593 120.88130849153839,542.2169659019081 121.13228052903271,542.4175751685415 121.38640383546222,542.6141772707493 121.64361443664349,542.806722715004 121.9038475811832,542.9951630290193 122.16703775677885,543.1794507739542 122.43311870671123,543.3595395563541 122.70202344652411,543.5353840398315 122.97368428088728,543.7069399564776 123.2480328206385,543.8741641180083 123.52499999999996,544.0370144266349 123.80451609396547,544.1954498856632 124.08651073585314,544.3494306098136 124.3709129350199,544.4989178352622 124.65765109473304,544.6438739293995 124.94665303019424,544.784262400304 125.23784598671178,544.920047905929 125.53115665801603,545.0511962629994 125.82651120471411,545.1776744556178 126.12383527287832,545.2994506435755 126.42305401276455,545.4164941703684 126.72409209765517,545.5287755709147 127.02687374282218,545.636266578972 127.3313227246056,545.7389401342541 127.63736239960238,545.8367703892425 127.94491572396102,545.9297327156936 128.25390527277676,546.0178037108388 128.56425325958313,546.1009612032763 128.87588155593406,546.1791842585517 129.1887117110725,546.2524531844294 129.50266497167985,546.3207495358492 129.81766230170166,546.3840561195698 130.1336244022446,546.4423569984972 130.4504717315396,546.495637495697 130.76812452496594,546.5438841980889 131.08650281513155,546.5870849598235 131.4055264520045,546.6252289053404 131.72511512309026,546.658306432105 132.04518837364998,546.6863092130268 132.36566562695452,546.7092301985557 132.68646620456917,546.727063618456 133.00750934666408,546.7398049832594 133.32871423234513,546.7474510853959 133.64999999999998,546.75 255.14999999999998,546.75 " style="stroke:black;fill:none;stroke-width:2;stroke-linecap:round;stroke-linejoin:round;" /><path d="M 0.0,40.5 L -4.463837582892102e-15,64.8 L -7.625095819546128e-15,81.0" style="stroke:black;fill:none;stroke-width:2;stroke-linecap:round;stroke-linejoin:round;" /><path d="M -8.606050635848877e-15 87.1 L -2.4300000000000077 81.0 L 2.4299999999999917 81.0 Z" style="stroke:black;fill:black;stroke-linecap:butt;stroke-linejoin:miter;" /><path d="M -16.200000000000006,153.9 L -16.20000000000001,178.2 L -16.200000000000014,194.39999999999998" style="stroke:black;fill:none;stroke-width:2;stroke-linecap:round;stroke-linejoin:round;" /><path d="M -16.200000000000014 200.5 L -18.630000000000013 194.39999999999998 L -13.770000000000014 194.39999999999998 Z" style="stroke:black;fill:black;stroke-linecap:butt;stroke-linejoin:miter;" /><path d="M -113.4,234.89999999999998 L -113.4,202.5 L 80.99999999999999,202.5 L 80.99999999999999,267.3 L -113.4,267.3 L -113.4,234.89999999999998" style="stroke:black;fill:none;stroke-width:2;stroke-linecap:round;stroke-linejoin:round;" /><path d="M -16.200000000000014,267.3 L -16.200000000000017,291.59999999999997 L -16.20000000000002,307.8" style="stroke:black;fill:none;stroke-width:2;stroke-linecap:round;stroke-linejoin:round;" /><path d="M -16.20000000000002 313.9 L -18.63000000000002 307.79999999999995 L -13.770000000000021 307.79999999999995 Z" style="stroke:black;fill:black;stroke-linecap:butt;stroke-linejoin:miter;" /><path d="M -32.40000000000002,380.7 L -32.40000000000003,405.0 L -32.40000000000003,421.2" style="stroke:black;fill:none;stroke-width:2;stroke-linecap:round;stroke-linejoin:round;" /><path d="M -32.40000000000003 427.29999999999995 L -34.83000000000003 421.19999999999993 L -29.970000000000027 421.19999999999993 Z" style="stroke:black;fill:black;stroke-linecap:butt;stroke-linejoin:miter;" /><path d="M 64.79999999999997,526.5 L 89.09999999999997,526.5 L 105.29999999999997,526.5" style="stroke:black;fill:none;stroke-width:2;stroke-linecap:round;stroke-linejoin:round;" /><path d="M 111.39999999999996 526.5 L 105.29999999999997 528.93 L 105.29999999999997 524.07 Z" style="stroke:black;fill:black;stroke-linecap:butt;stroke-linejoin:miter;" /><path d="M -32.40000000000003,623.6999999999999 L -32.400000000000034,648.0 L -32.400000000000034,664.1999999999999" style="stroke:black;fill:none;stroke-width:2;stroke-linecap:round;stroke-linejoin:round;" /><path d="M -32.400000000000034 670.3 L -34.830000000000034 664.2 L -29.970000000000034 664.2 Z" style="stroke:black;fill:black;stroke-linecap:butt;stroke-linejoin:miter;" /><path d="M -194.40000000000003,704.6999999999999 L -194.40000000000003,672.3 L 129.59999999999997,672.3 L 129.59999999999997,737.1 L -194.40000000000003,737.1 L -194.40000000000003,704.6999999999999" style="stroke:black;fill:none;stroke-width:2;stroke-linecap:round;stroke-linejoin:round;" /><text x="0.0" y="12.550000000000002" fill="black" font-size="14" font-family="sans-serif" text-anchor="middle" transform="rotate(0 0.0 18.150000000000002)"><tspan x="0.0" dy="11.200000000000001">Data send from HIVEQM</tspan></text><text x="-8.100000000000009" y="105.39999999999998" fill="black" font-size="14" font-family="sans-serif" text-anchor="middle" transform="rotate(0 -8.100000000000009 119.39999999999999)"><tspan x="-8.100000000000009" dy="14">receive into on_message</tspan><tspan x="-8.100000000000009" dy="14">in comm_mqtt.MQTTConn</tspan></text><text x="-16.200000000000014" y="218.79999999999998" fill="black" font-size="14" font-family="sans-serif" text-anchor="middle" transform="rotate(0 -16.200000000000014 232.79999999999998)"><tspan x="-16.200000000000014" dy="14">process input message</tspan><tspan x="-16.200000000000014" dy="14"> into a sensor status state</tspan></text><text x="-24.300000000000022" y="332.2" fill="black" font-size="14" font-family="sans-serif" text-anchor="middle" transform="rotate(0 -24.300000000000022 346.2)"><tspan x="-24.300000000000022" dy="14">send sensor status to</tspan><tspan x="-24.300000000000022" dy="14">main_gui.SensorUI.change_status</tspan></text><text x="-28.18800000000003" y="625.812" fill="black" font-size="14" font-family="sans-serif" text-anchor="start" transform="rotate(0 -28.18800000000003 625.812)"><tspan x="-28.18800000000003" dy="11.200000000000001">Yes</tspan></text><text x="69.01199999999996" y="508.9880000000001" fill="black" font-size="14" font-family="sans-serif" text-anchor="start" transform="rotate(0 69.01199999999996 520.1880000000001)"><tspan x="69.01199999999996" dy="11.200000000000001">No</tspan></text><text x="-32.40000000000003" y="503.4" fill="black" font-size="14" font-family="sans-serif" text-anchor="middle" transform="rotate(0 -32.40000000000003 524.4)"><tspan x="-32.40000000000003" dy="14">Is the name from</tspan><tspan x="-32.40000000000003" dy="14">the data found in</tspan><tspan x="-32.40000000000003" dy="14">the NAMES list</tspan></text><text x="194.39999999999995" y="518.8" fill="black" font-size="14" font-family="sans-serif" text-anchor="middle" transform="rotate(0 194.39999999999995 524.4)"><tspan x="194.39999999999995" dy="11.200000000000001">Exit with no change</tspan></text><text x="-32.400000000000034" y="688.6" fill="black" font-size="14" font-family="sans-serif" text-anchor="middle" transform="rotate(0 -32.400000000000034 702.6)"><tspan x="-32.400000000000034" dy="14">call main_gui.StatusButton.toggle_color</tspan><tspan x="-32.400000000000034" dy="14">and est the propre color the indicator</tspan></text></svg>